<svg xmlns="http://www.w3.org/2000/svg" width="50.125" height="38.875" viewBox="0 0 50.125 38.875">
  <metadata><?xpacket begin="﻿" id="W5M0MpCehiHzreSzNTczkc9d"?>
<x:xmpmeta xmlns:x="adobe:ns:meta/" x:xmptk="Adobe XMP Core 5.6-c138 79.159824, 2016/09/14-01:09:01        ">
   <rdf:RDF xmlns:rdf="http://www.w3.org/1999/02/22-rdf-syntax-ns#">
      <rdf:Description rdf:about=""/>
   </rdf:RDF>
</x:xmpmeta>
                                                                                                    
                                                                                                    
                                                                                                    
                                                                                                    
                                                                                                    
                                                                                                    
                                                                                                    
                                                                                                    
                                                                                                    
                                                                                                    
                                                                                                    
                                                                                                    
                                                                                                    
                                                                                                    
                                                                                                    
                                                                                                    
                                                                                                    
                                                                                                    
                                                                                                    
                                                                                                    
                           
<?xpacket end="w"?></metadata>
<defs>
    <style>
      .cls-1 {
        fill: #a3bbc8;
        fill-rule: evenodd;
      }
    </style>
  </defs>
  <path id="Path_324" data-name="Path 324" class="cls-1" d="M76.157,79.674a1.13,1.13,0,0,0,.622.387l48.041,9.8a1.137,1.137,0,0,0,.908-0.212,0.874,0.874,0,0,0,.31-0.8h0l-6.251-37.079a0.962,0.962,0,0,0-.449-0.645,1.337,1.337,0,0,0-.965-0.051L83.179,65.118a0.9,0.9,0,0,0-.507.452c-0.171.325-6.494,13.076-6.583,13.257A0.806,0.806,0,0,0,76.157,79.674Zm45.586,6.436-20.05-11.145,10.339-2.159Zm-37.7-18.883L96.569,74.21,78.736,77.925Zm1.662-1.172L117.24,53.468l-5.558,17.587L99.311,73.639ZM123.363,85.05l-9.779-13.4,4.9-15.52Zm-3.886,1.9L81.426,79.187l17.523-3.65Z" transform="translate(-76 -51)"/>
</svg>
